<svg xmlns="http://www.w3.org/2000/svg" width="114" height="114" viewBox="0 0 114 114">
  <g id="Group_37" data-name="Group 37" transform="translate(-20059.572 -5085.572)">
    <path id="Rectangle_200" data-name="Rectangle 200" d="M0,0H57a0,0,0,0,1,0,0V57a0,0,0,0,1,0,0H40A40,40,0,0,1,0,17V0A0,0,0,0,1,0,0Z" transform="translate(20059.572 5085.572)" fill="#ff855d"/>
    <path id="Rectangle_201" data-name="Rectangle 201" d="M0,0H57a0,0,0,0,1,0,0V57a0,0,0,0,1,0,0H40A40,40,0,0,1,0,17V0A0,0,0,0,1,0,0Z" transform="translate(20173.572 5142.572) rotate(180)" fill="#485857"/>
    <path id="Rectangle_202" data-name="Rectangle 202" d="M0,0H57a0,0,0,0,1,0,0V57a0,0,0,0,1,0,0H40A40,40,0,0,1,0,17V0A0,0,0,0,1,0,0Z" transform="translate(20116.572 5142.572)" fill="#ffd1d5"/>
    <circle id="Ellipse_11" data-name="Ellipse 11" cx="27" cy="27" r="27" transform="translate(20059.572 5145.572)" fill="#262467"/>
  </g>
</svg>
