<svg xmlns="http://www.w3.org/2000/svg" xmlns:xlink="http://www.w3.org/1999/xlink" width="217.958" height="65.243" viewBox="0 0 217.958 65.243">
  <defs>
    <linearGradient id="linear-gradient" y1="-0.051" x2="1.053" y2="1.159" gradientUnits="objectBoundingBox">
      <stop offset="0" stop-color="#10a0da"/>
      <stop offset="1" stop-color="#022e83"/>
    </linearGradient>
  </defs>
  <g id="Group_26312" data-name="Group 26312" transform="translate(-886.776 -495)">
    <path id="Path_54466" data-name="Path 54466" d="M11.935,0H54.9A11.935,11.935,0,0,1,66.834,11.935V53.308A11.935,11.935,0,0,1,54.9,65.243H11.935A11.935,11.935,0,0,1,0,53.308V11.935A11.935,11.935,0,0,1,11.935,0Z" transform="translate(886.776 495)" fill="url(#linear-gradient)"/>
    <g id="Group_25527" data-name="Group 25527" transform="translate(968.728 538.751)">
      <path id="im" d="M17.782,9.687V4.9a4.084,4.084,0,0,0-.4-2.174,1.375,1.375,0,0,0-1.2-.569,1.83,1.83,0,0,0-1.094.347,2.054,2.054,0,0,0-.719.959,5.938,5.938,0,0,0-.235,1.966V9.687h-2.4V5.113a6.428,6.428,0,0,0-.187-1.836,1.661,1.661,0,0,0-.562-.846,1.48,1.48,0,0,0-.907-.278A1.788,1.788,0,0,0,9,2.5a2.1,2.1,0,0,0-.724.985,6.079,6.079,0,0,0-.24,2v4.2H5.647V.243H8.036V1.328a4.059,4.059,0,0,1,1.356-1A3.972,3.972,0,0,1,11.017,0a3.03,3.03,0,0,1,1.6.434A3.141,3.141,0,0,1,13.772,1.7,3.753,3.753,0,0,1,16.963,0a3.343,3.343,0,0,1,1.778.469,2.712,2.712,0,0,1,1.1,1.224,6.519,6.519,0,0,1,.336,2.457V9.687ZM0,9.687V.243H2.389V9.687Z" transform="translate(0.397 5.72)" fill="#002e83"/>
      <path id="Subtraction_2" data-name="Subtraction 2" d="M4.524,9.93a4.181,4.181,0,0,1-1.715-.355A4.622,4.622,0,0,1,1.343,8.511,4.788,4.788,0,0,1,.336,6.919,5.43,5.43,0,0,1,0,4.983a5.834,5.834,0,0,1,.325-1.99A4.664,4.664,0,0,1,1.3,1.4,4.407,4.407,0,0,1,2.737.349,4.212,4.212,0,0,1,4.455,0a4.047,4.047,0,0,1,1.6.321,4.395,4.395,0,0,1,1.386.964V.243H9.816V9.687H7.445v-1a4.7,4.7,0,0,1-1.4.951A3.954,3.954,0,0,1,4.524,9.93Zm.418-7.743A2.432,2.432,0,0,0,3.1,2.964a2.8,2.8,0,0,0-.732,1.992A2.829,2.829,0,0,0,3.116,6.97a2.434,2.434,0,0,0,1.835.79,2.48,2.48,0,0,0,1.866-.777,2.84,2.84,0,0,0,.741-2.036,2.759,2.759,0,0,0-.741-2A2.512,2.512,0,0,0,4.943,2.188Z" transform="translate(23.53 5.72)" fill="#00a0da"/>
      <path id="Subtraction_1" data-name="Subtraction 1" d="M4.917,13.385a6.915,6.915,0,0,1-2.345-.347,4.237,4.237,0,0,1-1.6-1.02A4.172,4.172,0,0,1,0,10.382H2.624a2.179,2.179,0,0,0,.9.6,3.749,3.749,0,0,0,1.3.2,3.454,3.454,0,0,0,1.543-.3,1.793,1.793,0,0,0,.824-.764,3.873,3.873,0,0,0,.24-1.615,3.959,3.959,0,0,1-1.316.9,4.218,4.218,0,0,1-1.56.273A4.474,4.474,0,0,1,2.79,9.345,4.443,4.443,0,0,1,1.325,8.316,4.58,4.58,0,0,1,.338,6.762,5.4,5.4,0,0,1,.009,4.844,5.613,5.613,0,0,1,.357,2.817,4.436,4.436,0,0,1,1.4,1.233,4.342,4.342,0,0,1,2.79.308,4.287,4.287,0,0,1,4.42,0,4.047,4.047,0,0,1,5.967.3a4.927,4.927,0,0,1,1.46.985V.243H9.8v8.09a7.944,7.944,0,0,1-.242,2.079,3.7,3.7,0,0,1-.726,1.445A4.03,4.03,0,0,1,7.2,13,6.3,6.3,0,0,1,4.917,13.385ZM4.96,2.214A2.494,2.494,0,0,0,3.1,2.964a2.606,2.606,0,0,0-.732,1.888,2.643,2.643,0,0,0,.75,1.936A2.555,2.555,0,0,0,5,7.543,2.452,2.452,0,0,0,6.83,6.805,2.667,2.667,0,0,0,7.549,4.87a2.635,2.635,0,0,0-.724-1.918A2.51,2.51,0,0,0,4.96,2.214Z" transform="translate(36.457 5.72)" fill="#00a0da"/>
      <path id="Path" d="M2.389,9.444V0H0V9.444Z" transform="translate(49.523 5.963)" fill="#00a0da"/>
      <path id="Path-2" data-name="Path" d="M2.38,15.407V0H0V15.407Z" transform="translate(54.935 0)" fill="#00a0da"/>
      <path id="Path-3" data-name="Path" d="M1.534,3.073A1.447,1.447,0,0,0,2.6,2.626a1.476,1.476,0,0,0,.445-1.081A1.494,1.494,0,0,0,2.593.451,1.465,1.465,0,0,0,1.517,0,1.464,1.464,0,0,0,.445.443,1.452,1.452,0,0,0,0,1.51,1.518,1.518,0,0,0,.449,2.617,1.468,1.468,0,0,0,1.534,3.073Z" transform="translate(60.007 2.074)" fill="#00a0da"/>
      <path id="Path_Copy_2" data-name="Path Copy 2" d="M1.534,3.073A1.447,1.447,0,0,0,2.6,2.626a1.476,1.476,0,0,0,.445-1.081A1.494,1.494,0,0,0,2.593.451,1.465,1.465,0,0,0,1.517,0,1.464,1.464,0,0,0,.445.443,1.452,1.452,0,0,0,0,1.51,1.518,1.518,0,0,0,.449,2.617,1.468,1.468,0,0,0,1.534,3.073Z" transform="translate(49.172 2.074)" fill="#00a0da"/>
      <path id="Path_Copy_2-2" data-name="Path Copy 2" d="M1.534,3.073A1.447,1.447,0,0,0,2.6,2.626a1.476,1.476,0,0,0,.445-1.081A1.494,1.494,0,0,0,2.593.451,1.465,1.465,0,0,0,1.517,0,1.464,1.464,0,0,0,.445.443,1.452,1.452,0,0,0,0,1.51,1.518,1.518,0,0,0,.449,2.617,1.468,1.468,0,0,0,1.534,3.073Z" transform="translate(0 2.074)" fill="#022e83"/>
      <path id="Path-4" data-name="Path" d="M2.389,9.444V0H0V9.444Z" transform="translate(60.329 5.963)" fill="#00a0da"/>
      <path id="Path-5" data-name="Path" d="M3.592,12.925v-7.4H5V3.481H3.592V0H1.22V3.481H0v2.04H1.22v7.4Z" transform="translate(65.062 2.482)" fill="#00a0da"/>
      <path id="Path-6" data-name="Path" d="M4.115,12.9,10.06,0H7.619L4.9,5.929,2.432,0H0L3.609,8.741,1.656,12.9Z" transform="translate(71.415 5.963)" fill="#00a0da"/>
      <path id="Path-7" data-name="Path" d="M0,.433.223,0,.372.144Z" transform="matrix(0.208, 0.978, -0.978, 0.208, 76.792, 1.985)" fill="#06307f"/>
      <path id="Path-8" data-name="Path" d="M.074,3.046,0,2.238,2.9,0,.3,2.527Z" transform="matrix(0.208, 0.978, -0.978, 0.208, 79.398, 1.051)" fill="#fff"/>
      <path id="Path_-_Outline" data-name="Path - Outline" d="M.238,4.957,0,2.372,3.078,0,3.6.6,1.048,3.072Z" transform="matrix(0.208, 0.978, -0.978, 0.208, 79.619, 0.578)" fill="rgba(0,0,0,0)"/>
    </g>
    <path id="Path-9" data-name="Path" d="M0,.5.258,0,.429.166Z" transform="matrix(0.208, 0.978, -0.978, 0.208, 1064.225, 559.596)" fill="#06307f"/>
    <g id="Group_25528" data-name="Group 25528" transform="matrix(0.122, -0.993, 0.993, 0.122, 892.708, 540.985)">
      <path id="Subtraction_3" data-name="Subtraction 3" d="M36.649,40.462h0L8.91,35.743l1.82-8.414L0,20.1l14.181-9.812v-.021C14.256,9.221,14.916,0,15.356,0c.016,0,.032.012.047.037L36.648,40.461ZM13.695,19.56,34.316,38.311,14.339,12.735h0L2.477,19.56Z" transform="translate(0 0)" fill="#fff"/>
    </g>
    <path id="Path_54948" data-name="Path 54948" d="M3.324-33.123H8.292V-6.834H3.324Zm10.061,6.845h4.879v1.993a11.7,11.7,0,0,1,3.007-1.946,7.268,7.268,0,0,1,2.757-.547,6.675,6.675,0,0,1,4.908,2.019,6.935,6.935,0,0,1,1.7,5.075V-6.834H25.806v-8.515a21.541,21.541,0,0,0-.312-4.623,3.167,3.167,0,0,0-1.088-1.74,3.045,3.045,0,0,0-1.917-.6,3.592,3.592,0,0,0-2.54.991,5.288,5.288,0,0,0-1.471,2.74,22.1,22.1,0,0,0-.214,3.945v7.8H13.386Zm19.881,0h4.971L43.15-14.8l4.9-11.473H53L44.722-6.834H41.559ZM75.327-15.144H59.654a5.218,5.218,0,0,0,1.814,3.3,5.691,5.691,0,0,0,3.762,1.224,6.5,6.5,0,0,0,4.7-1.912l4.11,1.93a9.7,9.7,0,0,1-3.681,3.226,11.513,11.513,0,0,1-5.093,1.045A10.066,10.066,0,0,1,57.813-9.22a9.822,9.822,0,0,1-2.877-7.229,10.153,10.153,0,0,1,2.868-7.39A9.633,9.633,0,0,1,65-26.778a9.99,9.99,0,0,1,7.47,2.94,10.624,10.624,0,0,1,2.877,7.765Zm-4.879-3.842a4.895,4.895,0,0,0-1.906-2.645,5.528,5.528,0,0,0-3.3-1.019,5.84,5.84,0,0,0-3.58,1.144,6.374,6.374,0,0,0-1.79,2.52Zm20.73-4.575-3.02,3.02a5.109,5.109,0,0,0-3.342-1.823,2.1,2.1,0,0,0-1.287.348,1.048,1.048,0,0,0-.465.867,1.065,1.065,0,0,0,.295.724,5.5,5.5,0,0,0,1.456.9l1.787.894a10.531,10.531,0,0,1,3.878,2.841,5.612,5.612,0,0,1,1.054,3.4,5.608,5.608,0,0,1-1.9,4.325,7.286,7.286,0,0,1-5.1,1.733,8.11,8.11,0,0,1-6.791-3.324l3-3.27a6.935,6.935,0,0,0,2.01,1.617,4.451,4.451,0,0,0,2.046.617,2.44,2.44,0,0,0,1.555-.465,1.347,1.347,0,0,0,.59-1.072q0-1.126-2.127-2.2l-1.644-.822q-4.718-2.377-4.718-5.951a5.164,5.164,0,0,1,1.778-3.941,6.457,6.457,0,0,1,4.548-1.635,7.9,7.9,0,0,1,3.565.831A7.887,7.887,0,0,1,91.178-23.562Zm4.789-9.883h4.879v7.166h2.9v4.2h-2.9V-6.834H95.968V-22.078h-2.5v-4.2h2.5Zm19.515,6.666a10.305,10.305,0,0,1,5.174,1.376,9.941,9.941,0,0,1,3.78,3.735,10.036,10.036,0,0,1,1.358,5.093,10.211,10.211,0,0,1-1.367,5.147A9.865,9.865,0,0,1,120.7-7.683a10.29,10.29,0,0,1-5.2,1.349,9.7,9.7,0,0,1-7.139-2.976,9.871,9.871,0,0,1-2.958-7.229,9.838,9.838,0,0,1,3.342-7.6A9.762,9.762,0,0,1,115.483-26.778Zm.08,4.593a5.022,5.022,0,0,0-3.786,1.582,5.617,5.617,0,0,0-1.513,4.048,5.721,5.721,0,0,0,1.495,4.11,5,5,0,0,0,3.786,1.573,5.057,5.057,0,0,0,3.813-1.591,5.677,5.677,0,0,0,1.522-4.092,5.64,5.64,0,0,0-1.495-4.066A5.056,5.056,0,0,0,115.563-22.186Zm13.073-4.092h4.182v2.448a5.224,5.224,0,0,1,1.8-2.2,4.355,4.355,0,0,1,2.466-.751,4.563,4.563,0,0,1,1.984.5l-1.519,4.2a3.355,3.355,0,0,0-1.412-.429,2.234,2.234,0,0,0-1.9,1.394q-.777,1.394-.777,5.469l.018.947v7.863h-4.843Z" transform="translate(965.662 536.047)" fill="#002e83"/>
  </g>
</svg>
